HIERARCHY
ROOT wineglass3
{
	OFFSET 0.000000 0.000000 0.000000
	CHANNELS 6 Xposition Yposition Zposition Yrotation Xrotation Zrotation
	End Site
	{
		OFFSET 0.000000 0.000000 0.000000
	}
}
MOTION
Frames: 105
Frame Time: 0.008333334
2.125382 3.769182 3.204054 155.738800 3.230326 8.147364 
2.118849 3.768735 3.201934 155.678200 3.094011 8.016104 
2.112240 3.768826 3.199146 155.434400 3.078145 7.677609 
2.106487 3.769170 3.196647 155.203100 3.160347 7.286988 
2.101319 3.768700 3.193910 155.042300 2.983172 7.354271 
2.096155 3.768408 3.190843 154.699700 2.985642 7.111805 
2.092342 3.768900 3.187739 154.463900 3.211506 6.788561 
2.087776 3.768762 3.183784 154.244000 3.232556 6.517406 
2.083290 3.768170 3.180003 153.896100 3.269971 6.362417 
2.079363 3.767984 3.174996 153.521200 3.471652 5.963121 
2.075605 3.767531 3.169271 153.259600 3.597402 5.551948 
2.072649 3.767609 3.162705 153.082600 3.774365 5.404531 
2.069942 3.766788 3.152578 152.649900 4.064425 5.121758 
2.067848 3.766175 3.143859 152.368200 4.498218 4.836701 
2.065882 3.765684 3.132984 152.014000 4.873880 4.325488 
2.062978 3.765002 3.122577 151.824200 5.092854 4.274194 
2.060824 3.765054 3.112278 151.670900 5.529156 3.799126 
2.058341 3.765022 3.103100 151.564100 5.849091 3.438066 
2.056162 3.764948 3.094935 151.608200 6.102244 3.132062 
2.053117 3.764677 3.088657 151.696800 6.234516 2.964253 
2.050419 3.764354 3.083583 151.681900 6.409939 2.606500 
2.047933 3.764943 3.081335 152.021900 6.370569 2.513797 
2.046797 3.764677 3.080291 152.234300 6.384539 2.371555 
2.046726 3.764907 3.080093 152.361800 6.359431 2.466661 
2.047326 3.764794 3.080648 152.287000 6.352063 2.489860 
2.048910 3.764719 3.081942 152.035700 6.370741 2.477302 
2.049899 3.764493 3.082777 151.837400 6.378841 2.548695 
2.050000 3.764160 3.083056 151.640800 6.319580 2.638118 
2.049470 3.763883 3.082980 151.454400 6.263365 2.483216 
2.047944 3.764064 3.083146 151.247700 6.212142 2.381893 
2.046932 3.763977 3.084100 151.124100 6.135238 2.384508 
2.046312 3.763698 3.085584 151.008400 6.039159 2.307568 
2.046099 3.763833 3.087321 150.903800 5.929093 2.386397 
2.045952 3.763391 3.089581 150.785800 5.688844 2.496696 
2.046414 3.763323 3.092994 150.622200 5.576954 2.540639 
2.047418 3.762664 3.096987 150.666000 5.285453 2.680692 
2.048771 3.762524 3.101385 150.526600 5.168106 2.844653 
2.049677 3.761869 3.106360 150.505600 4.817560 2.988608 
2.050547 3.762034 3.110326 150.356600 4.679242 3.008562 
2.052516 3.762290 3.112340 150.215500 4.697586 3.160397 
2.055905 3.762663 3.112645 150.006600 4.747025 3.269362 
2.057786 3.763134 3.112561 149.901700 4.795162 3.289815 
2.057777 3.763087 3.112564 149.781500 4.795957 3.355462 
2.056122 3.762672 3.112422 149.695200 4.763179 3.248517 
2.053475 3.762415 3.112212 149.767300 4.674500 3.182685 
2.050622 3.762306 3.110391 149.826100 4.688545 3.102588 
2.049130 3.762530 3.107293 149.850600 4.792119 2.968191 
2.049074 3.762689 3.103310 149.884100 4.993874 2.848541 
2.051425 3.762479 3.101395 149.926200 5.064832 2.803791 
2.052571 3.762727 3.100377 150.010400 5.152443 2.804720 
2.052099 3.762628 3.100664 150.044400 5.100025 2.883004 
2.050665 3.762629 3.101973 150.134300 5.025167 2.875745 
2.050374 3.762189 3.104767 150.194700 4.849733 2.899890 
2.051601 3.762063 3.108069 150.225000 4.760969 3.081602 
2.053307 3.762245 3.109761 150.274600 4.768011 3.190600 
2.053765 3.762300 3.109659 150.195300 4.816396 3.191434 
2.053150 3.762137 3.108738 150.197200 4.774569 3.115009 
2.051030 3.761698 3.107845 150.229800 4.707538 3.095357 
2.049073 3.762158 3.105442 150.251900 4.813631 2.857982 
2.049211 3.762306 3.103551 150.195300 4.960346 2.670084 
2.051400 3.762474 3.103247 150.292800 5.011106 2.901561 
2.052572 3.762519 3.103624 150.295800 4.954679 2.993703 
2.051681 3.761940 3.105099 150.288900 4.848115 2.975869 
2.050027 3.761454 3.106976 150.349500 4.686126 2.943247 
2.049128 3.762014 3.108729 150.306900 4.657831 2.851842 
2.049876 3.762031 3.108832 150.294400 4.729796 3.010649 
2.051115 3.761743 3.106786 150.238400 4.798334 3.093645 
2.051148 3.762078 3.104052 150.212300 4.911209 2.847815 
2.050331 3.762391 3.102483 150.207300 5.035981 2.797241 
2.050929 3.762501 3.101778 150.187300 5.041519 2.868344 
2.051430 3.762365 3.102184 150.244400 4.961705 2.937171 
2.050978 3.761693 3.104200 150.270500 4.830084 2.936680 
2.050864 3.761716 3.107189 150.292200 4.745764 3.095749 
2.051088 3.761767 3.108394 150.246000 4.706302 2.994902 
2.051421 3.762105 3.108044 150.256900 4.798585 3.084985 
2.050700 3.761566 3.106598 150.262800 4.759861 3.018399 
2.050212 3.761922 3.105208 150.242900 4.848840 2.949595 
2.051222 3.761988 3.104469 150.213700 4.926610 2.845896 
2.051142 3.762072 3.104536 150.249600 4.897265 2.851097 
2.050193 3.761737 3.105410 150.219500 4.845660 2.814944 
2.050693 3.761589 3.106511 150.226300 4.787067 2.998244 
2.050712 3.761782 3.107587 150.252300 4.777346 3.174012 
2.050617 3.761692 3.107046 150.223200 4.770571 3.136069 
2.050589 3.761821 3.105651 150.233900 4.813085 3.052346 
2.051178 3.761790 3.104304 150.249400 4.872291 2.931393 
2.051131 3.762194 3.103887 150.218800 4.933059 3.109751 
2.050835 3.762099 3.104053 150.234300 4.869298 2.987170 
2.050924 3.761802 3.105056 150.237700 4.816914 2.974138 
2.050702 3.761605 3.106606 150.273900 4.804180 2.964626 
2.050650 3.761770 3.107129 150.250200 4.752752 3.051539 
2.050836 3.761794 3.106594 150.268300 4.791022 3.069436 
2.050853 3.761628 3.105729 150.258600 4.820111 2.933476 
2.050934 3.761718 3.104844 150.234300 4.849117 2.917567 
2.051293 3.761797 3.104841 150.272700 4.837259 2.920755 
2.050747 3.761700 3.105495 150.251800 4.836868 2.915879 
2.050468 3.761802 3.106319 150.263500 4.782455 3.022127 
2.050394 3.762142 3.107265 150.257100 4.810323 3.177871 
2.050482 3.761771 3.106742 150.270400 4.763846 3.056101 
2.050812 3.761692 3.105671 150.269100 4.806493 2.963249 
2.050948 3.761671 3.104650 150.211200 4.844879 2.911571 
2.051063 3.761662 3.104467 150.232300 4.830024 2.964800 
2.050978 3.761695 3.104648 150.208700 4.856380 2.894701 
2.050734 3.761749 3.105749 150.262900 4.799391 2.972438 
2.050451 3.761819 3.106564 150.265600 4.754296 3.102566 
2.050560 3.761916 3.106823 150.251400 4.745519 3.099056 
